<mxfile host="65bd71144e">
    <diagram id="ASTWp4ZXTidoFe2xOwB_" name="1b">
        <mxGraphModel dx="1409" dy="537" grid="1" gridSize="10" guides="1" tooltips="1" connect="1" arrows="1" fold="1" page="1" pageScale="1" pageWidth="827" pageHeight="1169" math="0" shadow="0">
            <root>
                <mxCell id="0"/>
                <mxCell id="1" parent="0"/>
                <mxCell id="2" value="預約型買家" style="shape=umlActor;verticalLabelPosition=bottom;verticalAlign=top;html=1;outlineConnect=0;" vertex="1" parent="1">
                    <mxGeometry x="90" y="160" width="70" height="130" as="geometry"/>
                </mxCell>
                <mxCell id="3" value="現場即時參觀買家" style="shape=umlActor;verticalLabelPosition=bottom;verticalAlign=top;html=1;outlineConnect=0;" vertex="1" parent="1">
                    <mxGeometry x="90" y="470" width="70" height="130" as="geometry"/>
                </mxCell>
                <mxCell id="4" value="看房預約軟體" style="swimlane;whiteSpace=wrap;html=1;" vertex="1" parent="1">
                    <mxGeometry x="214" y="70" width="200" height="700" as="geometry"/>
                </mxCell>
                <mxCell id="6" value="預約型買家填寫申請表，點選預約制 Line 選單後，再進行身分填寫，其內容需要有手機號碼、姓名與看房時段申請預約" style="ellipse;whiteSpace=wrap;html=1;" vertex="1" parent="4">
                    <mxGeometry x="15" y="30" width="170" height="100" as="geometry"/>
                </mxCell>
                <mxCell id="15" value="現場即時參觀買家填寫申請表，點選現場制 Line 選單後，再進行身分填寫，其內容需要有手機號碼、姓名" style="ellipse;whiteSpace=wrap;html=1;" vertex="1" parent="4">
                    <mxGeometry x="15" y="140" width="170" height="100" as="geometry"/>
                </mxCell>
                <mxCell id="16" value="代銷管理者審核預約型買家與現場即時參觀買家的預約申請" style="ellipse;whiteSpace=wrap;html=1;" vertex="1" parent="4">
                    <mxGeometry x="15" y="250" width="170" height="100" as="geometry"/>
                </mxCell>
                <mxCell id="17" value="將成功預約信息推送給預約型買家，提醒預約成功&amp;nbsp;" style="ellipse;whiteSpace=wrap;html=1;" vertex="1" parent="4">
                    <mxGeometry x="15" y="360" width="170" height="100" as="geometry"/>
                </mxCell>
                <mxCell id="18" value="將預約失敗信息推送給預約型買家，提醒重新填寫申請" style="ellipse;whiteSpace=wrap;html=1;" vertex="1" parent="4">
                    <mxGeometry x="15" y="470" width="170" height="100" as="geometry"/>
                </mxCell>
                <mxCell id="19" value="根據現場參觀申請，派遣閒置的代銷進行分配，並通知買家" style="ellipse;whiteSpace=wrap;html=1;" vertex="1" parent="4">
                    <mxGeometry x="15" y="580" width="170" height="100" as="geometry"/>
                </mxCell>
                <mxCell id="13" value="代銷管理者" style="shape=umlActor;verticalLabelPosition=bottom;verticalAlign=top;html=1;outlineConnect=0;" vertex="1" parent="1">
                    <mxGeometry x="460" y="180" width="70" height="130" as="geometry"/>
                </mxCell>
                <mxCell id="14" value="代銷接待人員" style="shape=umlActor;verticalLabelPosition=bottom;verticalAlign=top;html=1;outlineConnect=0;" vertex="1" parent="1">
                    <mxGeometry x="460" y="460" width="70" height="130" as="geometry"/>
                </mxCell>
                <mxCell id="20" value="" style="endArrow=none;html=1;entryX=0;entryY=0.5;entryDx=0;entryDy=0;" edge="1" parent="1" source="2" target="6">
                    <mxGeometry width="50" height="50" relative="1" as="geometry">
                        <mxPoint x="340" y="440" as="sourcePoint"/>
                        <mxPoint x="390" y="390" as="targetPoint"/>
                    </mxGeometry>
                </mxCell>
                <mxCell id="21" value="" style="endArrow=none;html=1;entryX=0;entryY=0.5;entryDx=0;entryDy=0;exitX=1;exitY=0.3333333333333333;exitDx=0;exitDy=0;exitPerimeter=0;" edge="1" parent="1" source="3" target="15">
                    <mxGeometry width="50" height="50" relative="1" as="geometry">
                        <mxPoint x="340" y="440" as="sourcePoint"/>
                        <mxPoint x="390" y="390" as="targetPoint"/>
                    </mxGeometry>
                </mxCell>
                <mxCell id="22" value="" style="endArrow=none;html=1;entryX=0;entryY=0.3333333333333333;entryDx=0;entryDy=0;entryPerimeter=0;exitX=0.998;exitY=0.334;exitDx=0;exitDy=0;exitPerimeter=0;" edge="1" parent="1" source="16" target="13">
                    <mxGeometry width="50" height="50" relative="1" as="geometry">
                        <mxPoint x="340" y="440" as="sourcePoint"/>
                        <mxPoint x="390" y="390" as="targetPoint"/>
                    </mxGeometry>
                </mxCell>
                <mxCell id="23" value="" style="endArrow=none;html=1;exitX=1;exitY=0.5;exitDx=0;exitDy=0;" edge="1" parent="1" source="19">
                    <mxGeometry width="50" height="50" relative="1" as="geometry">
                        <mxPoint x="340" y="440" as="sourcePoint"/>
                        <mxPoint x="450" y="540" as="targetPoint"/>
                    </mxGeometry>
                </mxCell>
                <mxCell id="24" value="" style="endArrow=none;html=1;exitX=0.985;exitY=0.343;exitDx=0;exitDy=0;exitPerimeter=0;" edge="1" parent="1" source="17">
                    <mxGeometry width="50" height="50" relative="1" as="geometry">
                        <mxPoint x="340" y="440" as="sourcePoint"/>
                        <mxPoint x="450" y="320" as="targetPoint"/>
                    </mxGeometry>
                </mxCell>
                <mxCell id="25" value="" style="endArrow=none;html=1;exitX=1;exitY=0.5;exitDx=0;exitDy=0;" edge="1" parent="1" source="18" target="13">
                    <mxGeometry width="50" height="50" relative="1" as="geometry">
                        <mxPoint x="340" y="440" as="sourcePoint"/>
                        <mxPoint x="390" y="390" as="targetPoint"/>
                    </mxGeometry>
                </mxCell>
            </root>
        </mxGraphModel>
    </diagram>
    <diagram id="YNBZmlXG5lnyesX3e9GX" name="1d">
        <mxGraphModel dx="986" dy="376" grid="1" gridSize="10" guides="1" tooltips="1" connect="1" arrows="1" fold="1" page="1" pageScale="1" pageWidth="827" pageHeight="1169" math="0" shadow="0">
            <root>
                <mxCell id="0"/>
                <mxCell id="1" parent="0"/>
                <mxCell id="FVynA0xlXGdIJ7XBKecZ-1" value="代銷管理者" style="swimlane;fontStyle=0;childLayout=stackLayout;horizontal=1;startSize=26;horizontalStack=0;resizeParent=1;resizeParentMax=0;resizeLast=0;collapsible=1;marginBottom=0;align=center;fontSize=14;" vertex="1" parent="1">
                    <mxGeometry x="310" y="50" width="160" height="116" as="geometry"/>
                </mxCell>
                <mxCell id="FVynA0xlXGdIJ7XBKecZ-2" value="姓名" style="text;strokeColor=none;fillColor=none;spacingLeft=4;spacingRight=4;overflow=hidden;rotatable=0;points=[[0,0.5],[1,0.5]];portConstraint=eastwest;fontSize=12;" vertex="1" parent="FVynA0xlXGdIJ7XBKecZ-1">
                    <mxGeometry y="26" width="160" height="30" as="geometry"/>
                </mxCell>
                <mxCell id="FVynA0xlXGdIJ7XBKecZ-3" value="手機號碼" style="text;strokeColor=none;fillColor=none;spacingLeft=4;spacingRight=4;overflow=hidden;rotatable=0;points=[[0,0.5],[1,0.5]];portConstraint=eastwest;fontSize=12;" vertex="1" parent="FVynA0xlXGdIJ7XBKecZ-1">
                    <mxGeometry y="56" width="160" height="30" as="geometry"/>
                </mxCell>
                <mxCell id="FVynA0xlXGdIJ7XBKecZ-4" value="審查狀態" style="text;strokeColor=none;fillColor=none;spacingLeft=4;spacingRight=4;overflow=hidden;rotatable=0;points=[[0,0.5],[1,0.5]];portConstraint=eastwest;fontSize=12;" vertex="1" parent="FVynA0xlXGdIJ7XBKecZ-1">
                    <mxGeometry y="86" width="160" height="30" as="geometry"/>
                </mxCell>
                <mxCell id="FVynA0xlXGdIJ7XBKecZ-9" value="申請表" style="swimlane;fontStyle=0;childLayout=stackLayout;horizontal=1;startSize=26;horizontalStack=0;resizeParent=1;resizeParentMax=0;resizeLast=0;collapsible=1;marginBottom=0;align=center;fontSize=14;" vertex="1" parent="1">
                    <mxGeometry x="310" y="263" width="160" height="116" as="geometry"/>
                </mxCell>
                <mxCell id="FVynA0xlXGdIJ7XBKecZ-10" value="姓名" style="text;strokeColor=none;fillColor=none;spacingLeft=4;spacingRight=4;overflow=hidden;rotatable=0;points=[[0,0.5],[1,0.5]];portConstraint=eastwest;fontSize=12;" vertex="1" parent="FVynA0xlXGdIJ7XBKecZ-9">
                    <mxGeometry y="26" width="160" height="30" as="geometry"/>
                </mxCell>
                <mxCell id="FVynA0xlXGdIJ7XBKecZ-11" value="手機號碼" style="text;strokeColor=none;fillColor=none;spacingLeft=4;spacingRight=4;overflow=hidden;rotatable=0;points=[[0,0.5],[1,0.5]];portConstraint=eastwest;fontSize=12;" vertex="1" parent="FVynA0xlXGdIJ7XBKecZ-9">
                    <mxGeometry y="56" width="160" height="30" as="geometry"/>
                </mxCell>
                <mxCell id="FVynA0xlXGdIJ7XBKecZ-12" value="申請參觀類型(預約/現場)" style="text;strokeColor=none;fillColor=none;spacingLeft=4;spacingRight=4;overflow=hidden;rotatable=0;points=[[0,0.5],[1,0.5]];portConstraint=eastwest;fontSize=12;" vertex="1" parent="FVynA0xlXGdIJ7XBKecZ-9">
                    <mxGeometry y="86" width="160" height="30" as="geometry"/>
                </mxCell>
                <mxCell id="FVynA0xlXGdIJ7XBKecZ-13" value="買家" style="swimlane;fontStyle=0;childLayout=stackLayout;horizontal=1;startSize=26;horizontalStack=0;resizeParent=1;resizeParentMax=0;resizeLast=0;collapsible=1;marginBottom=0;align=center;fontSize=14;" vertex="1" parent="1">
                    <mxGeometry x="30" y="263" width="160" height="116" as="geometry"/>
                </mxCell>
                <mxCell id="FVynA0xlXGdIJ7XBKecZ-14" value="姓名" style="text;strokeColor=none;fillColor=none;spacingLeft=4;spacingRight=4;overflow=hidden;rotatable=0;points=[[0,0.5],[1,0.5]];portConstraint=eastwest;fontSize=12;" vertex="1" parent="FVynA0xlXGdIJ7XBKecZ-13">
                    <mxGeometry y="26" width="160" height="30" as="geometry"/>
                </mxCell>
                <mxCell id="FVynA0xlXGdIJ7XBKecZ-15" value="手機號碼" style="text;strokeColor=none;fillColor=none;spacingLeft=4;spacingRight=4;overflow=hidden;rotatable=0;points=[[0,0.5],[1,0.5]];portConstraint=eastwest;fontSize=12;" vertex="1" parent="FVynA0xlXGdIJ7XBKecZ-13">
                    <mxGeometry y="56" width="160" height="30" as="geometry"/>
                </mxCell>
                <mxCell id="FVynA0xlXGdIJ7XBKecZ-16" value="申請參觀類型(預約/現場)" style="text;strokeColor=none;fillColor=none;spacingLeft=4;spacingRight=4;overflow=hidden;rotatable=0;points=[[0,0.5],[1,0.5]];portConstraint=eastwest;fontSize=12;" vertex="1" parent="FVynA0xlXGdIJ7XBKecZ-13">
                    <mxGeometry y="86" width="160" height="30" as="geometry"/>
                </mxCell>
                <mxCell id="FVynA0xlXGdIJ7XBKecZ-19" value="" style="endArrow=none;html=1;rounded=0;exitX=1;exitY=0.5;exitDx=0;exitDy=0;entryX=0;entryY=0.5;entryDx=0;entryDy=0;" edge="1" parent="1" source="FVynA0xlXGdIJ7XBKecZ-15" target="FVynA0xlXGdIJ7XBKecZ-11">
                    <mxGeometry relative="1" as="geometry">
                        <mxPoint x="200" y="330" as="sourcePoint"/>
                        <mxPoint x="310" y="330" as="targetPoint"/>
                    </mxGeometry>
                </mxCell>
                <mxCell id="FVynA0xlXGdIJ7XBKecZ-20" value="1" style="resizable=0;html=1;align=left;verticalAlign=bottom;" connectable="0" vertex="1" parent="FVynA0xlXGdIJ7XBKecZ-19">
                    <mxGeometry x="-1" relative="1" as="geometry"/>
                </mxCell>
                <mxCell id="FVynA0xlXGdIJ7XBKecZ-21" value="1" style="resizable=0;html=1;align=right;verticalAlign=bottom;" connectable="0" vertex="1" parent="FVynA0xlXGdIJ7XBKecZ-19">
                    <mxGeometry x="1" relative="1" as="geometry"/>
                </mxCell>
                <mxCell id="FVynA0xlXGdIJ7XBKecZ-22" value="" style="endArrow=none;html=1;rounded=0;exitX=0.5;exitY=1.067;exitDx=0;exitDy=0;exitPerimeter=0;entryX=0.5;entryY=0;entryDx=0;entryDy=0;" edge="1" parent="1" source="FVynA0xlXGdIJ7XBKecZ-4" target="FVynA0xlXGdIJ7XBKecZ-9">
                    <mxGeometry relative="1" as="geometry">
                        <mxPoint x="430" y="220" as="sourcePoint"/>
                        <mxPoint x="590" y="220" as="targetPoint"/>
                    </mxGeometry>
                </mxCell>
                <mxCell id="FVynA0xlXGdIJ7XBKecZ-23" value="1" style="resizable=0;html=1;align=left;verticalAlign=bottom;" connectable="0" vertex="1" parent="FVynA0xlXGdIJ7XBKecZ-22">
                    <mxGeometry x="-1" relative="1" as="geometry">
                        <mxPoint y="12" as="offset"/>
                    </mxGeometry>
                </mxCell>
                <mxCell id="FVynA0xlXGdIJ7XBKecZ-24" value="1...*" style="resizable=0;html=1;align=right;verticalAlign=bottom;" connectable="0" vertex="1" parent="FVynA0xlXGdIJ7XBKecZ-22">
                    <mxGeometry x="1" relative="1" as="geometry"/>
                </mxCell>
                <mxCell id="FVynA0xlXGdIJ7XBKecZ-25" value="" style="triangle;whiteSpace=wrap;html=1;" vertex="1" parent="1">
                    <mxGeometry x="270" y="280" width="30" height="30" as="geometry"/>
                </mxCell>
                <mxCell id="FVynA0xlXGdIJ7XBKecZ-26" value="填寫" style="text;html=1;strokeColor=none;fillColor=none;align=center;verticalAlign=middle;whiteSpace=wrap;rounded=0;" vertex="1" parent="1">
                    <mxGeometry x="220" y="280" width="60" height="30" as="geometry"/>
                </mxCell>
                <mxCell id="FVynA0xlXGdIJ7XBKecZ-27" value="代銷接待人員" style="swimlane;fontStyle=0;childLayout=stackLayout;horizontal=1;startSize=26;horizontalStack=0;resizeParent=1;resizeParentMax=0;resizeLast=0;collapsible=1;marginBottom=0;align=center;fontSize=14;" vertex="1" parent="1">
                    <mxGeometry x="580" y="50" width="160" height="86" as="geometry"/>
                </mxCell>
                <mxCell id="FVynA0xlXGdIJ7XBKecZ-28" value="姓名" style="text;strokeColor=none;fillColor=none;spacingLeft=4;spacingRight=4;overflow=hidden;rotatable=0;points=[[0,0.5],[1,0.5]];portConstraint=eastwest;fontSize=12;" vertex="1" parent="FVynA0xlXGdIJ7XBKecZ-27">
                    <mxGeometry y="26" width="160" height="30" as="geometry"/>
                </mxCell>
                <mxCell id="FVynA0xlXGdIJ7XBKecZ-29" value="手機號碼" style="text;strokeColor=none;fillColor=none;spacingLeft=4;spacingRight=4;overflow=hidden;rotatable=0;points=[[0,0.5],[1,0.5]];portConstraint=eastwest;fontSize=12;" vertex="1" parent="FVynA0xlXGdIJ7XBKecZ-27">
                    <mxGeometry y="56" width="160" height="30" as="geometry"/>
                </mxCell>
                <mxCell id="FVynA0xlXGdIJ7XBKecZ-31" value="" style="endArrow=none;html=1;rounded=0;exitX=1;exitY=0.5;exitDx=0;exitDy=0;entryX=0;entryY=0.5;entryDx=0;entryDy=0;" edge="1" parent="1" source="FVynA0xlXGdIJ7XBKecZ-3" target="FVynA0xlXGdIJ7XBKecZ-29">
                    <mxGeometry relative="1" as="geometry">
                        <mxPoint x="470" y="110" as="sourcePoint"/>
                        <mxPoint x="630" y="110" as="targetPoint"/>
                    </mxGeometry>
                </mxCell>
                <mxCell id="FVynA0xlXGdIJ7XBKecZ-32" value="1" style="resizable=0;html=1;align=left;verticalAlign=bottom;" connectable="0" vertex="1" parent="FVynA0xlXGdIJ7XBKecZ-31">
                    <mxGeometry x="-1" relative="1" as="geometry"/>
                </mxCell>
                <mxCell id="FVynA0xlXGdIJ7XBKecZ-33" value="1" style="resizable=0;html=1;align=right;verticalAlign=bottom;" connectable="0" vertex="1" parent="FVynA0xlXGdIJ7XBKecZ-31">
                    <mxGeometry x="1" relative="1" as="geometry"/>
                </mxCell>
                <mxCell id="FVynA0xlXGdIJ7XBKecZ-34" value="派遣" style="text;html=1;strokeColor=none;fillColor=none;align=center;verticalAlign=middle;whiteSpace=wrap;rounded=0;" vertex="1" parent="1">
                    <mxGeometry x="490" y="70" width="60" height="30" as="geometry"/>
                </mxCell>
                <mxCell id="FVynA0xlXGdIJ7XBKecZ-35" value="" style="triangle;whiteSpace=wrap;html=1;" vertex="1" parent="1">
                    <mxGeometry x="540" y="70" width="30" height="30" as="geometry"/>
                </mxCell>
            </root>
        </mxGraphModel>
    </diagram>
    <diagram id="AscKv5OJ8TlSJ3xA4gjY" name="2b">
        <mxGraphModel dx="1160" dy="442" grid="1" gridSize="10" guides="1" tooltips="1" connect="1" arrows="1" fold="1" page="1" pageScale="1" pageWidth="827" pageHeight="1169" math="0" shadow="0">
            <root>
                <mxCell id="0"/>
                <mxCell id="1" parent="0"/>
                <mxCell id="KlPI7CQG69xYGHD1IvLA-1" value="申請者(民眾)" style="shape=umlActor;verticalLabelPosition=bottom;verticalAlign=top;html=1;outlineConnect=0;" vertex="1" parent="1">
                    <mxGeometry x="50" y="240" width="70" height="130" as="geometry"/>
                </mxCell>
                <mxCell id="KlPI7CQG69xYGHD1IvLA-2" value="金融機構" style="shape=umlActor;verticalLabelPosition=bottom;verticalAlign=top;html=1;outlineConnect=0;" vertex="1" parent="1">
                    <mxGeometry x="490" y="190" width="70" height="130" as="geometry"/>
                </mxCell>
                <mxCell id="KlPI7CQG69xYGHD1IvLA-3" value="健保局" style="shape=umlActor;verticalLabelPosition=bottom;verticalAlign=top;html=1;outlineConnect=0;" vertex="1" parent="1">
                    <mxGeometry x="490" y="350" width="70" height="130" as="geometry"/>
                </mxCell>
                <mxCell id="KlPI7CQG69xYGHD1IvLA-4" value="政府機關人員" style="shape=umlActor;verticalLabelPosition=bottom;verticalAlign=top;html=1;outlineConnect=0;" vertex="1" parent="1">
                    <mxGeometry x="490" y="520" width="70" height="130" as="geometry"/>
                </mxCell>
                <mxCell id="KlPI7CQG69xYGHD1IvLA-5" value="戶政系統" style="shape=umlActor;verticalLabelPosition=bottom;verticalAlign=top;html=1;outlineConnect=0;" vertex="1" parent="1">
                    <mxGeometry x="490" y="40" width="70" height="130" as="geometry"/>
                </mxCell>
                <mxCell id="KlPI7CQG69xYGHD1IvLA-6" value="普發8000網站" style="swimlane;whiteSpace=wrap;html=1;" vertex="1" parent="1">
                    <mxGeometry x="190" y="94" width="210" height="490" as="geometry"/>
                </mxCell>
                <mxCell id="KlPI7CQG69xYGHD1IvLA-7" value="申請者進入前台網站進行資料填寫，包括身分證字號、金融代號、帳號和健保卡號等。" style="ellipse;whiteSpace=wrap;html=1;" vertex="1" parent="KlPI7CQG69xYGHD1IvLA-6">
                    <mxGeometry x="15" y="25" width="180" height="85" as="geometry"/>
                </mxCell>
                <mxCell id="KlPI7CQG69xYGHD1IvLA-8" value="申請者在填寫完資訊後進行最後一次確認，確認無誤後提交申請。" style="ellipse;whiteSpace=wrap;html=1;" vertex="1" parent="KlPI7CQG69xYGHD1IvLA-6">
                    <mxGeometry x="15" y="120" width="180" height="85" as="geometry"/>
                </mxCell>
                <mxCell id="KlPI7CQG69xYGHD1IvLA-9" value="戶政系統、金融機構以及健保局對申請者提交的資料進行審核，確保申請者符合政策要求。" style="ellipse;whiteSpace=wrap;html=1;" vertex="1" parent="KlPI7CQG69xYGHD1IvLA-6">
                    <mxGeometry x="15" y="210" width="180" height="85" as="geometry"/>
                </mxCell>
                <mxCell id="KlPI7CQG69xYGHD1IvLA-10" value="政府機關人員進入後台系統查詢每日提交的申請資訊，確保系統正常運行並及時發現任何異常資訊。" style="ellipse;whiteSpace=wrap;html=1;" vertex="1" parent="KlPI7CQG69xYGHD1IvLA-6">
                    <mxGeometry x="15" y="300" width="180" height="85" as="geometry"/>
                </mxCell>
                <mxCell id="KlPI7CQG69xYGHD1IvLA-11" value="根據政府機關人員的審核結果，將符合資格的申請者寫入普發名單，準備後續發放補助金。" style="ellipse;whiteSpace=wrap;html=1;" vertex="1" parent="KlPI7CQG69xYGHD1IvLA-6">
                    <mxGeometry x="15" y="390" width="180" height="85" as="geometry"/>
                </mxCell>
                <mxCell id="KlPI7CQG69xYGHD1IvLA-12" value="" style="endArrow=none;html=1;fontFamily=Helvetica;fontSize=12;entryX=0;entryY=0.5;entryDx=0;entryDy=0;" edge="1" parent="1" source="KlPI7CQG69xYGHD1IvLA-1" target="KlPI7CQG69xYGHD1IvLA-7">
                    <mxGeometry width="50" height="50" relative="1" as="geometry">
                        <mxPoint x="130" y="300" as="sourcePoint"/>
                        <mxPoint x="180" y="250" as="targetPoint"/>
                    </mxGeometry>
                </mxCell>
                <mxCell id="KlPI7CQG69xYGHD1IvLA-13" value="" style="endArrow=none;html=1;fontFamily=Helvetica;fontSize=12;entryX=1;entryY=0.5;entryDx=0;entryDy=0;" edge="1" parent="1" source="KlPI7CQG69xYGHD1IvLA-4" target="KlPI7CQG69xYGHD1IvLA-11">
                    <mxGeometry width="50" height="50" relative="1" as="geometry">
                        <mxPoint x="260" y="690" as="sourcePoint"/>
                        <mxPoint x="310" y="640" as="targetPoint"/>
                    </mxGeometry>
                </mxCell>
                <mxCell id="KlPI7CQG69xYGHD1IvLA-14" value="" style="endArrow=none;html=1;fontFamily=Helvetica;fontSize=12;entryX=1;entryY=0.5;entryDx=0;entryDy=0;" edge="1" parent="1" source="KlPI7CQG69xYGHD1IvLA-4" target="KlPI7CQG69xYGHD1IvLA-10">
                    <mxGeometry width="50" height="50" relative="1" as="geometry">
                        <mxPoint x="300" y="400" as="sourcePoint"/>
                        <mxPoint x="350" y="350" as="targetPoint"/>
                    </mxGeometry>
                </mxCell>
                <mxCell id="KlPI7CQG69xYGHD1IvLA-15" value="" style="endArrow=none;html=1;fontFamily=Helvetica;fontSize=12;entryX=0;entryY=0.5;entryDx=0;entryDy=0;" edge="1" parent="1" source="KlPI7CQG69xYGHD1IvLA-1" target="KlPI7CQG69xYGHD1IvLA-8">
                    <mxGeometry width="50" height="50" relative="1" as="geometry">
                        <mxPoint x="300" y="400" as="sourcePoint"/>
                        <mxPoint x="350" y="350" as="targetPoint"/>
                    </mxGeometry>
                </mxCell>
                <mxCell id="KlPI7CQG69xYGHD1IvLA-16" value="" style="endArrow=none;html=1;fontFamily=Helvetica;fontSize=12;exitX=0.974;exitY=0.325;exitDx=0;exitDy=0;exitPerimeter=0;" edge="1" parent="1" source="KlPI7CQG69xYGHD1IvLA-9" target="KlPI7CQG69xYGHD1IvLA-5">
                    <mxGeometry width="50" height="50" relative="1" as="geometry">
                        <mxPoint x="300" y="400" as="sourcePoint"/>
                        <mxPoint x="350" y="350" as="targetPoint"/>
                    </mxGeometry>
                </mxCell>
                <mxCell id="KlPI7CQG69xYGHD1IvLA-17" value="" style="endArrow=none;html=1;fontFamily=Helvetica;fontSize=12;exitX=1;exitY=0.5;exitDx=0;exitDy=0;" edge="1" parent="1" source="KlPI7CQG69xYGHD1IvLA-9" target="KlPI7CQG69xYGHD1IvLA-2">
                    <mxGeometry width="50" height="50" relative="1" as="geometry">
                        <mxPoint x="300" y="400" as="sourcePoint"/>
                        <mxPoint x="350" y="350" as="targetPoint"/>
                    </mxGeometry>
                </mxCell>
                <mxCell id="KlPI7CQG69xYGHD1IvLA-18" value="" style="endArrow=none;html=1;fontFamily=Helvetica;fontSize=12;exitX=0.953;exitY=0.713;exitDx=0;exitDy=0;exitPerimeter=0;" edge="1" parent="1" source="KlPI7CQG69xYGHD1IvLA-9" target="KlPI7CQG69xYGHD1IvLA-3">
                    <mxGeometry width="50" height="50" relative="1" as="geometry">
                        <mxPoint x="300" y="400" as="sourcePoint"/>
                        <mxPoint x="350" y="350" as="targetPoint"/>
                    </mxGeometry>
                </mxCell>
            </root>
        </mxGraphModel>
    </diagram>
    <diagram id="jKp8lnFoO_ODNvvGuu6S" name="2d">
        <mxGraphModel dx="986" dy="376" grid="1" gridSize="10" guides="1" tooltips="1" connect="1" arrows="1" fold="1" page="1" pageScale="1" pageWidth="827" pageHeight="1169" math="0" shadow="0">
            <root>
                <mxCell id="0"/>
                <mxCell id="1" parent="0"/>
                <mxCell id="8q5j2xyUu0TpCtqpIFyH-1" value="網站" style="swimlane;fontStyle=0;childLayout=stackLayout;horizontal=1;startSize=26;horizontalStack=0;resizeParent=1;resizeParentMax=0;resizeLast=0;collapsible=1;marginBottom=0;align=center;fontSize=14;fontFamily=Helvetica;" vertex="1" parent="1">
                    <mxGeometry x="310" y="60" width="160" height="146" as="geometry"/>
                </mxCell>
                <mxCell id="8q5j2xyUu0TpCtqpIFyH-2" value="身分證字號/居留證號" style="text;strokeColor=none;fillColor=none;spacingLeft=4;spacingRight=4;overflow=hidden;rotatable=0;points=[[0,0.5],[1,0.5]];portConstraint=eastwest;fontSize=12;fontFamily=Helvetica;" vertex="1" parent="8q5j2xyUu0TpCtqpIFyH-1">
                    <mxGeometry y="26" width="160" height="30" as="geometry"/>
                </mxCell>
                <mxCell id="8q5j2xyUu0TpCtqpIFyH-3" value="金融帳戶" style="text;strokeColor=none;fillColor=none;spacingLeft=4;spacingRight=4;overflow=hidden;rotatable=0;points=[[0,0.5],[1,0.5]];portConstraint=eastwest;fontSize=12;fontFamily=Helvetica;" vertex="1" parent="8q5j2xyUu0TpCtqpIFyH-1">
                    <mxGeometry y="56" width="160" height="30" as="geometry"/>
                </mxCell>
                <mxCell id="8q5j2xyUu0TpCtqpIFyH-5" value="代領金融代號" style="text;strokeColor=none;fillColor=none;spacingLeft=4;spacingRight=4;overflow=hidden;rotatable=0;points=[[0,0.5],[1,0.5]];portConstraint=eastwest;fontSize=12;fontFamily=Helvetica;" vertex="1" parent="8q5j2xyUu0TpCtqpIFyH-1">
                    <mxGeometry y="86" width="160" height="30" as="geometry"/>
                </mxCell>
                <mxCell id="8q5j2xyUu0TpCtqpIFyH-4" value="健保卡號" style="text;strokeColor=none;fillColor=none;spacingLeft=4;spacingRight=4;overflow=hidden;rotatable=0;points=[[0,0.5],[1,0.5]];portConstraint=eastwest;fontSize=12;fontFamily=Helvetica;" vertex="1" parent="8q5j2xyUu0TpCtqpIFyH-1">
                    <mxGeometry y="116" width="160" height="30" as="geometry"/>
                </mxCell>
                <mxCell id="8q5j2xyUu0TpCtqpIFyH-6" value="申請者(民眾)" style="swimlane;fontStyle=0;childLayout=stackLayout;horizontal=1;startSize=26;horizontalStack=0;resizeParent=1;resizeParentMax=0;resizeLast=0;collapsible=1;marginBottom=0;align=center;fontSize=14;fontFamily=Helvetica;" vertex="1" parent="1">
                    <mxGeometry x="50" y="90" width="160" height="86" as="geometry"/>
                </mxCell>
                <mxCell id="8q5j2xyUu0TpCtqpIFyH-7" value="填寫資料" style="text;strokeColor=none;fillColor=none;spacingLeft=4;spacingRight=4;overflow=hidden;rotatable=0;points=[[0,0.5],[1,0.5]];portConstraint=eastwest;fontSize=12;fontFamily=Helvetica;" vertex="1" parent="8q5j2xyUu0TpCtqpIFyH-6">
                    <mxGeometry y="26" width="160" height="30" as="geometry"/>
                </mxCell>
                <mxCell id="8q5j2xyUu0TpCtqpIFyH-8" value="確認資料" style="text;strokeColor=none;fillColor=none;spacingLeft=4;spacingRight=4;overflow=hidden;rotatable=0;points=[[0,0.5],[1,0.5]];portConstraint=eastwest;fontSize=12;fontFamily=Helvetica;" vertex="1" parent="8q5j2xyUu0TpCtqpIFyH-6">
                    <mxGeometry y="56" width="160" height="30" as="geometry"/>
                </mxCell>
                <mxCell id="8q5j2xyUu0TpCtqpIFyH-10" value="政府機關人員" style="swimlane;fontStyle=0;childLayout=stackLayout;horizontal=1;startSize=26;horizontalStack=0;resizeParent=1;resizeParentMax=0;resizeLast=0;collapsible=1;marginBottom=0;align=center;fontSize=14;fontFamily=Helvetica;" vertex="1" parent="1">
                    <mxGeometry x="310" y="270" width="160" height="86" as="geometry"/>
                </mxCell>
                <mxCell id="8q5j2xyUu0TpCtqpIFyH-11" value="審核資料" style="text;strokeColor=none;fillColor=none;spacingLeft=4;spacingRight=4;overflow=hidden;rotatable=0;points=[[0,0.5],[1,0.5]];portConstraint=eastwest;fontSize=12;fontFamily=Helvetica;" vertex="1" parent="8q5j2xyUu0TpCtqpIFyH-10">
                    <mxGeometry y="26" width="160" height="30" as="geometry"/>
                </mxCell>
                <mxCell id="8q5j2xyUu0TpCtqpIFyH-12" value="生成普發名單" style="text;strokeColor=none;fillColor=none;spacingLeft=4;spacingRight=4;overflow=hidden;rotatable=0;points=[[0,0.5],[1,0.5]];portConstraint=eastwest;fontSize=12;fontFamily=Helvetica;" vertex="1" parent="8q5j2xyUu0TpCtqpIFyH-10">
                    <mxGeometry y="56" width="160" height="30" as="geometry"/>
                </mxCell>
                <mxCell id="8q5j2xyUu0TpCtqpIFyH-14" value="第三方系統" style="swimlane;fontStyle=0;childLayout=stackLayout;horizontal=1;startSize=26;horizontalStack=0;resizeParent=1;resizeParentMax=0;resizeLast=0;collapsible=1;marginBottom=0;align=center;fontSize=14;fontFamily=Helvetica;" vertex="1" parent="1">
                    <mxGeometry x="570" y="240" width="160" height="116" as="geometry"/>
                </mxCell>
                <mxCell id="8q5j2xyUu0TpCtqpIFyH-15" value="連線戶政系統對比資料" style="text;strokeColor=none;fillColor=none;spacingLeft=4;spacingRight=4;overflow=hidden;rotatable=0;points=[[0,0.5],[1,0.5]];portConstraint=eastwest;fontSize=12;fontFamily=Helvetica;" vertex="1" parent="8q5j2xyUu0TpCtqpIFyH-14">
                    <mxGeometry y="26" width="160" height="30" as="geometry"/>
                </mxCell>
                <mxCell id="8q5j2xyUu0TpCtqpIFyH-16" value="連線金融機構對比資料" style="text;strokeColor=none;fillColor=none;spacingLeft=4;spacingRight=4;overflow=hidden;rotatable=0;points=[[0,0.5],[1,0.5]];portConstraint=eastwest;fontSize=12;fontFamily=Helvetica;" vertex="1" parent="8q5j2xyUu0TpCtqpIFyH-14">
                    <mxGeometry y="56" width="160" height="30" as="geometry"/>
                </mxCell>
                <mxCell id="8q5j2xyUu0TpCtqpIFyH-17" value="連線健保局對比資料" style="text;strokeColor=none;fillColor=none;spacingLeft=4;spacingRight=4;overflow=hidden;rotatable=0;points=[[0,0.5],[1,0.5]];portConstraint=eastwest;fontSize=12;fontFamily=Helvetica;" vertex="1" parent="8q5j2xyUu0TpCtqpIFyH-14">
                    <mxGeometry y="86" width="160" height="30" as="geometry"/>
                </mxCell>
                <mxCell id="8q5j2xyUu0TpCtqpIFyH-19" value="" style="endArrow=none;html=1;rounded=0;fontFamily=Helvetica;fontSize=12;exitX=1;exitY=0.5;exitDx=0;exitDy=0;entryX=0;entryY=0.5;entryDx=0;entryDy=0;" edge="1" parent="1" source="8q5j2xyUu0TpCtqpIFyH-7" target="8q5j2xyUu0TpCtqpIFyH-3">
                    <mxGeometry relative="1" as="geometry">
                        <mxPoint x="230" y="130" as="sourcePoint"/>
                        <mxPoint x="390" y="130" as="targetPoint"/>
                    </mxGeometry>
                </mxCell>
                <mxCell id="8q5j2xyUu0TpCtqpIFyH-20" value="1" style="resizable=0;html=1;align=left;verticalAlign=bottom;fontFamily=Helvetica;fontSize=12;" connectable="0" vertex="1" parent="8q5j2xyUu0TpCtqpIFyH-19">
                    <mxGeometry x="-1" relative="1" as="geometry"/>
                </mxCell>
                <mxCell id="8q5j2xyUu0TpCtqpIFyH-21" value="1...*" style="resizable=0;html=1;align=right;verticalAlign=bottom;fontFamily=Helvetica;fontSize=12;" connectable="0" vertex="1" parent="8q5j2xyUu0TpCtqpIFyH-19">
                    <mxGeometry x="1" relative="1" as="geometry"/>
                </mxCell>
                <mxCell id="8q5j2xyUu0TpCtqpIFyH-22" value="" style="triangle;whiteSpace=wrap;html=1;fontFamily=Helvetica;fontSize=12;" vertex="1" parent="1">
                    <mxGeometry x="270" y="70" width="30" height="30" as="geometry"/>
                </mxCell>
                <mxCell id="8q5j2xyUu0TpCtqpIFyH-23" value="填寫" style="text;html=1;strokeColor=none;fillColor=none;align=center;verticalAlign=middle;whiteSpace=wrap;rounded=0;fontFamily=Helvetica;fontSize=12;" vertex="1" parent="1">
                    <mxGeometry x="220" y="70" width="60" height="30" as="geometry"/>
                </mxCell>
                <mxCell id="8q5j2xyUu0TpCtqpIFyH-24" value="" style="endArrow=none;html=1;rounded=0;fontFamily=Helvetica;fontSize=12;entryX=0.505;entryY=1.04;entryDx=0;entryDy=0;entryPerimeter=0;exitX=0.5;exitY=0;exitDx=0;exitDy=0;" edge="1" parent="1" source="8q5j2xyUu0TpCtqpIFyH-10" target="8q5j2xyUu0TpCtqpIFyH-4">
                    <mxGeometry relative="1" as="geometry">
                        <mxPoint x="310" y="250" as="sourcePoint"/>
                        <mxPoint x="470" y="250" as="targetPoint"/>
                    </mxGeometry>
                </mxCell>
                <mxCell id="8q5j2xyUu0TpCtqpIFyH-25" value="1" style="resizable=0;html=1;align=left;verticalAlign=bottom;fontFamily=Helvetica;fontSize=12;" connectable="0" vertex="1" parent="8q5j2xyUu0TpCtqpIFyH-24">
                    <mxGeometry x="-1" relative="1" as="geometry"/>
                </mxCell>
                <mxCell id="8q5j2xyUu0TpCtqpIFyH-26" value="1" style="resizable=0;html=1;align=right;verticalAlign=bottom;fontFamily=Helvetica;fontSize=12;" connectable="0" vertex="1" parent="8q5j2xyUu0TpCtqpIFyH-24">
                    <mxGeometry x="1" relative="1" as="geometry">
                        <mxPoint y="13" as="offset"/>
                    </mxGeometry>
                </mxCell>
                <mxCell id="8q5j2xyUu0TpCtqpIFyH-27" value="確認" style="text;html=1;strokeColor=none;fillColor=none;align=center;verticalAlign=middle;whiteSpace=wrap;rounded=0;fontFamily=Helvetica;fontSize=12;" vertex="1" parent="1">
                    <mxGeometry x="330" y="240" width="60" height="30" as="geometry"/>
                </mxCell>
                <mxCell id="8q5j2xyUu0TpCtqpIFyH-29" value="" style="endArrow=none;html=1;rounded=0;fontFamily=Helvetica;fontSize=12;entryX=0;entryY=0.5;entryDx=0;entryDy=0;exitX=1;exitY=0.5;exitDx=0;exitDy=0;" edge="1" parent="1" source="8q5j2xyUu0TpCtqpIFyH-11" target="8q5j2xyUu0TpCtqpIFyH-16">
                    <mxGeometry relative="1" as="geometry">
                        <mxPoint x="310" y="250" as="sourcePoint"/>
                        <mxPoint x="470" y="250" as="targetPoint"/>
                    </mxGeometry>
                </mxCell>
                <mxCell id="8q5j2xyUu0TpCtqpIFyH-30" value="1" style="resizable=0;html=1;align=left;verticalAlign=bottom;fontFamily=Helvetica;fontSize=12;" connectable="0" vertex="1" parent="8q5j2xyUu0TpCtqpIFyH-29">
                    <mxGeometry x="-1" relative="1" as="geometry"/>
                </mxCell>
                <mxCell id="8q5j2xyUu0TpCtqpIFyH-31" value="1" style="resizable=0;html=1;align=right;verticalAlign=bottom;fontFamily=Helvetica;fontSize=12;" connectable="0" vertex="1" parent="8q5j2xyUu0TpCtqpIFyH-29">
                    <mxGeometry x="1" relative="1" as="geometry"/>
                </mxCell>
                <mxCell id="8q5j2xyUu0TpCtqpIFyH-32" value="對接資料" style="text;html=1;strokeColor=none;fillColor=none;align=center;verticalAlign=middle;whiteSpace=wrap;rounded=0;fontFamily=Helvetica;fontSize=12;" vertex="1" parent="1">
                    <mxGeometry x="490" y="270" width="60" height="30" as="geometry"/>
                </mxCell>
            </root>
        </mxGraphModel>
    </diagram>
</mxfile>